<?xml version="1.0" standalone="no"?>
<!DOCTYPE svg PUBLIC "-//W3C//DTD SVG 20010904//EN"
 "http://www.w3.org/TR/2001/REC-SVG-20010904/DTD/svg10.dtd">
<svg version="1.0" xmlns="http://www.w3.org/2000/svg"
 width="166.000000pt" height="166.000000pt" viewBox="0 0 166.000000 166.000000"
 preserveAspectRatio="xMidYMid meet">
<metadata>
Created by potrace 1.11, written by Peter Selinger 2001-2013
</metadata>
<g transform="translate(0.000000,166.000000) scale(0.100000,-0.100000)"
fill="#000000" stroke="none">
<path d="M866 1209 c-47 -41 -54 -65 -24 -89 13 -11 33 -19 45 -20 43 0 53
-10 53 -54 0 -34 -6 -48 -33 -74 -18 -18 -40 -32 -49 -32 -9 0 -20 -4 -23 -10
-8 -13 55 -92 69 -87 6 2 18 19 28 38 24 50 57 76 109 83 37 6 50 3 72 -15 33
-25 57 -69 57 -104 0 -36 17 -31 35 11 28 68 17 120 -39 185 -37 44 -109 99
-129 99 -22 0 -56 30 -51 44 6 16 -41 56 -67 56 -10 0 -34 -14 -53 -31z"/>
<path d="M570 1143 c1 -5 19 -20 40 -35 44 -30 49 -47 23 -70 -35 -29 -55 -30
-95 -2 -46 32 -63 23 -43 -23 17 -41 69 -73 117 -73 39 0 57 -17 240 -236 75
-89 76 -91 71 -137 -5 -43 -3 -49 30 -82 19 -19 44 -35 56 -35 26 0 26 1 1 50
l-20 39 26 20 c44 35 71 28 96 -24 12 -25 25 -45 30 -45 4 0 12 17 19 39 18
60 -2 90 -79 120 -54 22 -74 37 -150 120 -174 191 -202 229 -202 281 0 42 -15
67 -50 85 -30 15 -110 21 -110 8z"/>
<path d="M582 712 c-67 -64 -123 -124 -122 -133 0 -20 69 -69 96 -69 11 0 61
45 126 114 l108 114 -36 44 c-20 23 -39 44 -43 45 -3 1 -61 -50 -129 -115z"/>
</g>
</svg>
